# xmcd
#
# Track frame offsets:
#  150
#  20162
#  38768
#
# Disc length: 731 seconds
#
# Revision: 0
# Processed by: cddbd v1.5.1PL2 Copyright (c) Steve Scherf et al.
# Submitted via: Collectorz.com_Music_Collector 6.9
#
DISCID=1e02d903
DTITLE=Sugababes - Caught In A Moment
DYEAR=2004
DGENRE=Pop
TTITLE0=Caught In A Moment
TTITLE1=Conversation's Over (AOL Session)
TTITLE2=Hole In The Head (AOL Session)
EXTD=
EXTT0=
EXTT1=
EXTT2=
PLAYORDER=
